<svg class="eric-spinner-test" width="100%" height="100%" xmlns="http://www.w3.org/2000/svg" viewBox="0 0 100 100" preserveAspectRatio="xMidYMid">
    <g transform="rotate(0 50 50)">
        <rect x="47" y="24" rx="9.4" ry="4.8" width="6" height="12" fill="#eaeaea">
            <animate attributeName="opacity" values="1;0" times="0;1" dur="1.9s" begin="-1.7416666666666665s" repeatCount="indefinite"></animate>
        </rect>
    </g>
    <g transform="rotate(30 50 50)">
        <rect x="47" y="24" rx="9.4" ry="4.8" width="6" height="12" fill="#eaeaea">
            <animate attributeName="opacity" values="1;0" times="0;1" dur="1.9s" begin="-1.5833333333333333s" repeatCount="indefinite"></animate>
        </rect>
    </g>
    <g transform="rotate(60 50 50)">
        <rect x="47" y="24" rx="9.4" ry="4.8" width="6" height="12" fill="#eaeaea">
            <animate attributeName="opacity" values="1;0" times="0;1" dur="1.9s" begin="-1.4249999999999998s" repeatCount="indefinite"></animate>
        </rect>
    </g>
    <g transform="rotate(90 50 50)">
        <rect x="47" y="24" rx="9.4" ry="4.8" width="6" height="12" fill="#eaeaea">
            <animate attributeName="opacity" values="1;0" times="0;1" dur="1.9s" begin="-1.2666666666666666s" repeatCount="indefinite"></animate>
        </rect>
    </g>
    <g transform="rotate(120 50 50)">
        <rect x="47" y="24" rx="9.4" ry="4.8" width="6" height="12" fill="#eaeaea">
            <animate attributeName="opacity" values="1;0" times="0;1" dur="1.9s" begin="-1.1083333333333332s" repeatCount="indefinite"></animate>
        </rect>
    </g>
    <g transform="rotate(150 50 50)">
        <rect x="47" y="24" rx="9.4" ry="4.8" width="6" height="12" fill="#eaeaea">
            <animate attributeName="opacity" values="1;0" times="0;1" dur="1.9s" begin="-0.9499999999999998s" repeatCount="indefinite"></animate>
        </rect>
    </g>
    <g transform="rotate(180 50 50)">
        <rect x="47" y="24" rx="9.4" ry="4.8" width="6" height="12" fill="#eaeaea">
            <animate attributeName="opacity" values="1;0" times="0;1" dur="1.9s" begin="-0.7916666666666666s" repeatCount="indefinite"></animate>
        </rect>
    </g>
    <g transform="rotate(210 50 50)">
        <rect x="47" y="24" rx="9.4" ry="4.8" width="6" height="12" fill="#eaeaea">
            <animate attributeName="opacity" values="1;0" times="0;1" dur="1.9s" begin="-0.6333333333333333s" repeatCount="indefinite"></animate>
        </rect>
    </g>
    <g transform="rotate(240 50 50)">
        <rect x="47" y="24" rx="9.4" ry="4.8" width="6" height="12" fill="#eaeaea">
            <animate attributeName="opacity" values="1;0" times="0;1" dur="1.9s" begin="-0.4749999999999999s" repeatCount="indefinite"></animate>
        </rect>
    </g>
    <g transform="rotate(270 50 50)">
        <rect x="47" y="24" rx="9.4" ry="4.8" width="6" height="12" fill="#eaeaea">
            <animate attributeName="opacity" values="1;0" times="0;1" dur="1.9s" begin="-0.31666666666666665s" repeatCount="indefinite"></animate>
        </rect>
    </g>
    <g transform="rotate(300 50 50)">
        <rect x="47" y="24" rx="9.4" ry="4.8" width="6" height="12" fill="#eaeaea">
            <animate attributeName="opacity" values="1;0" times="0;1" dur="1.9s" begin="-0.15833333333333333s" repeatCount="indefinite"></animate>
        </rect>
    </g>
    <g transform="rotate(330 50 50)">
        <rect x="47" y="24" rx="9.4" ry="4.8" width="6" height="12" fill="#eaeaea">
            <animate attributeName="opacity" values="1;0" times="0;1" dur="1.9s" begin="0s" repeatCount="indefinite"></animate>
        </rect>
    </g>
</svg>